<svg width="155" height="58" viewBox="0 0 155 58" fill="none" xmlns="http://www.w3.org/2000/svg">
<path d="M44.6525 47.5H34.7825V24.4H4.7525V15.3H44.6525V47.5ZM60.7044 33.99C60.7044 31.68 61.2644 29.51 62.4544 27.41H58.3244V18.66H72.3944V9.84H82.6844V18.66H96.6844V27.41H92.5544C93.6744 29.51 94.3044 31.68 94.3044 33.99C94.3044 36.02 93.8144 37.91 92.9744 39.66C92.0644 41.48 90.8744 43.09 89.4044 44.35C87.8644 45.75 86.0444 46.8 84.0844 47.57C81.9844 48.41 79.8144 48.76 77.5044 48.76C75.1244 48.76 72.9544 48.41 70.9244 47.57C68.8244 46.8 67.0744 45.75 65.6044 44.35C64.0644 43.09 62.8744 41.48 62.0344 39.66C61.1244 37.91 60.7044 36.02 60.7044 33.99ZM84.9944 33.99C84.9944 32.24 84.2244 30.7 82.8244 29.44C81.2844 28.18 79.5344 27.55 77.5044 27.55C75.4044 27.55 73.5844 28.18 72.1844 29.44C70.6444 30.7 69.9444 32.24 69.9444 33.99C69.9444 35.74 70.6444 37.21 72.1844 38.47C73.5844 39.8 75.4044 40.43 77.5044 40.43C78.4844 40.43 79.4644 40.29 80.4444 39.87C81.2844 39.59 82.1244 39.1 82.8244 38.54C83.4544 37.98 84.0144 37.28 84.4344 36.44C84.7844 35.67 84.9944 34.83 84.9944 33.99ZM150.156 15.3V45.75H110.256V15.3H150.156ZM140.286 36.65V24.4H120.126V36.65H140.286Z" fill="white"/>
</svg>
