<svg width="56" height="56" viewBox="0 0 56 56" fill="none" xmlns="http://www.w3.org/2000/svg">
<path d="M41.1009 36.4762C39.4082 36.4333 38.0963 36.6052 36.996 37.0776C36.6786 37.2064 36.1707 37.2065 36.1283 37.6147C36.2976 37.7865 36.3188 38.0658 36.4669 38.3019C36.7211 38.7314 37.1652 39.3114 37.5672 39.6123C38.0115 39.9558 38.456 40.2994 38.9214 40.6002C39.7467 41.1157 40.6778 41.4163 41.4818 41.9318C41.9475 42.2323 42.4127 42.6192 42.8783 42.9413C43.111 43.1129 43.2591 43.3924 43.5554 43.4997V43.4354C43.4072 43.2419 43.3649 42.9628 43.2169 42.748C43.0055 42.5332 42.7936 42.3399 42.582 42.1251C41.9684 41.2875 41.2067 40.5572 40.3815 39.9558C39.7045 39.4833 38.2231 38.839 37.9482 38.0442C37.9482 38.0442 37.9269 38.0228 37.9058 38.0013C38.3713 37.9584 38.9214 37.7865 39.3659 37.6576C40.0853 37.4642 40.7412 37.5073 41.4818 37.3139C41.8203 37.228 42.1589 37.1206 42.4974 37.0132V36.82C42.1167 36.4333 41.8416 35.9179 41.4395 35.5527C40.3604 34.6075 39.1753 33.684 37.9482 32.9108C37.2921 32.4812 36.4457 32.202 35.7474 31.8369C35.4937 31.7079 35.0704 31.6436 34.9224 31.4288C34.5413 30.9563 34.3297 30.3335 34.0547 29.775C33.4413 28.5935 32.8486 27.2834 32.3196 26.0378C31.9389 25.2 31.7061 24.3623 31.2406 23.5892C29.0611 19.9378 26.6912 17.7255 23.0519 15.5561C22.2689 15.1051 21.3379 14.9118 20.3434 14.6756C19.8146 14.654 19.2854 14.6112 18.7565 14.5896C18.4179 14.4392 18.0793 14.0312 17.783 13.8379C16.5772 13.0645 13.4665 11.3894 12.5778 13.6017C12.0065 14.9977 13.4243 16.3722 13.9108 17.0812C14.2708 17.5752 14.7361 18.1336 14.99 18.6921C15.1382 19.057 15.1804 19.4439 15.3285 19.8304C15.6672 20.7752 15.9844 21.8279 16.4289 22.7086C16.6617 23.1596 16.9155 23.6321 17.2118 24.0402C17.3811 24.2764 17.6772 24.3839 17.7408 24.7704C17.4447 25.2 17.4234 25.8445 17.254 26.3814C16.4923 28.8085 16.7887 31.8154 17.8677 33.5981C18.2062 34.1349 19.0103 35.3166 20.0895 34.8654C21.0417 34.4788 20.8301 33.2545 21.105 32.1806C21.1687 31.9226 21.1264 31.751 21.2532 31.5791V31.6222C21.5495 32.2234 21.8456 32.8036 22.1208 33.4049C22.7768 34.4572 23.9193 35.5527 24.8714 36.2831C25.3794 36.6695 25.7814 37.3354 26.4163 37.5717V37.5071H26.3738C26.2468 37.3138 26.0564 37.228 25.8872 37.0775C25.5064 36.6911 25.0831 36.2185 24.7869 35.7889C23.8984 34.586 23.1152 33.2544 22.417 31.8798C22.0786 31.2141 21.7822 30.4837 21.5072 29.818C21.3801 29.5599 21.3801 29.1735 21.1686 29.0448C20.8512 29.5172 20.3857 29.9254 20.1529 30.5052C19.7511 31.4288 19.7087 32.5671 19.5605 33.7483C19.4759 33.7701 19.5181 33.7483 19.4758 33.7916C18.7988 33.6195 18.566 32.9108 18.312 32.3094C17.6771 30.7845 17.5713 28.3359 18.1216 26.5747C18.2698 26.1236 18.9046 24.7061 18.6507 24.2765C18.5237 23.8683 18.1004 23.6321 17.8677 23.31C17.5927 22.9018 17.2963 22.3865 17.106 21.9353C16.5981 20.7325 16.3442 19.4008 15.7941 18.198C15.5401 17.6395 15.096 17.0598 14.7361 16.5442C14.3341 15.9643 13.8897 15.5561 13.5723 14.8688C13.4666 14.6327 13.3184 14.246 13.4877 13.9882C13.53 13.8164 13.6145 13.7521 13.7839 13.7091C14.059 13.4727 14.842 13.7734 15.1169 13.9023C15.8999 14.2243 16.5558 14.5252 17.2118 14.9762C17.5079 15.191 17.8254 15.5992 18.2062 15.7066H18.6506C19.3277 15.8568 20.0893 15.7495 20.7242 15.9427C21.8458 16.3078 22.8613 16.8448 23.7713 17.4248C26.5432 19.2075 28.8282 21.742 30.373 24.7704C30.627 25.2642 30.7327 25.7156 30.9655 26.2309C31.41 27.2834 31.9601 28.3574 32.4042 29.3883C32.8486 30.3977 33.2717 31.4288 33.9066 32.2665C34.224 32.7174 35.4935 32.9538 36.0649 33.1901C36.4881 33.3833 37.1441 33.5553 37.5249 33.7914C38.2443 34.2423 38.9637 34.7581 39.6409 35.2519C39.9795 35.5097 41.0373 36.0467 41.1009 36.4762Z" fill="#00546B"/>
<path d="M19.518 17.811C19.1584 17.811 18.9046 17.8542 18.6506 17.9186V17.9615H18.693C18.8624 18.3052 19.1584 18.5415 19.3699 18.8421C19.5393 19.1857 19.6873 19.5295 19.8567 19.8732C19.8778 19.8516 19.8989 19.8302 19.8989 19.8302C20.1953 19.6153 20.3433 19.2717 20.3433 18.7562C20.2164 18.606 20.1952 18.4556 20.0894 18.3052C19.9625 18.0903 19.6873 17.983 19.518 17.811Z" fill="#00546B"/>
</svg>
