<svg width="56" height="56" viewBox="0 0 56 56" fill="none" xmlns="http://www.w3.org/2000/svg">
<path d="M39.2334 29.7463C38.1481 29.752 37.2048 30.0134 36.4149 30.3998C36.1251 29.8259 35.8353 29.3145 35.7841 28.9394C35.7273 28.5019 35.6591 28.2348 35.7273 27.712C35.7955 27.1892 36.1023 26.4448 36.0967 26.3879C36.091 26.3311 36.0285 26.064 35.4034 26.0584C34.7783 26.0527 34.2385 26.1777 34.176 26.3425C34.1134 26.5073 33.9941 26.8823 33.9146 27.2687C33.8066 27.837 32.6644 29.8657 32.0109 30.9283C31.8006 30.5135 31.6188 30.1498 31.579 29.86C31.5222 29.4224 31.454 29.1554 31.5222 28.6326C31.5904 28.1098 31.8972 27.3653 31.8916 27.3085C31.8859 27.2517 31.8234 26.9846 31.1983 26.9789C30.5732 26.9732 30.0334 27.0983 29.9709 27.2631C29.9083 27.4279 29.8402 27.8143 29.7095 28.1893C29.5788 28.5644 28.0615 31.9512 27.6637 32.8263C27.4592 33.2752 27.283 33.6332 27.158 33.8776C27.158 33.8776 27.1523 33.8946 27.1353 33.923C27.0273 34.1333 26.9648 34.2469 26.9648 34.2469C26.9648 34.2469 26.9648 34.2469 26.9648 34.2526C26.8795 34.406 26.7886 34.5481 26.7432 34.5481C26.7091 34.5481 26.6466 34.139 26.7545 33.5821C26.9818 32.4058 27.5217 30.576 27.516 30.5135C27.516 30.4794 27.6183 30.1612 27.1637 29.9964C26.7204 29.8316 26.5613 30.1043 26.5215 30.1043C26.4818 30.1043 26.4533 30.2009 26.4533 30.2009C26.4533 30.2009 26.9477 28.1439 25.51 28.1439C24.6122 28.1439 23.3734 29.1269 22.7597 30.0134C22.3733 30.2237 21.5493 30.6726 20.6685 31.1556C20.3332 31.3431 19.9866 31.5307 19.6627 31.7068C19.64 31.6841 19.6172 31.6557 19.5945 31.6329C17.8556 29.7747 14.6393 28.4621 14.7757 25.9674C14.8268 25.0582 15.1394 22.6715 20.9526 19.7734C25.7373 17.4152 29.5447 18.0687 30.2038 19.5177C31.1471 21.5862 28.1638 25.4276 23.22 25.9845C21.3334 26.1947 20.3446 25.4674 20.0946 25.1946C19.8332 24.9105 19.7934 24.8934 19.6968 24.9503C19.5377 25.0355 19.64 25.2912 19.6968 25.439C19.8445 25.8254 20.4526 26.5073 21.4811 26.8425C22.3903 27.138 24.6008 27.3028 27.2773 26.2686C30.272 25.1094 32.6132 21.8873 31.9257 19.1881C31.2381 16.4491 26.692 15.5456 22.3903 17.0742C19.8332 17.9834 17.0601 19.4154 15.0655 21.2793C12.6959 23.4955 12.3208 25.4219 12.4742 26.2288C13.0254 29.0928 16.9748 30.9567 18.5546 32.3376C18.475 32.383 18.4012 32.4228 18.3386 32.4569C17.5488 32.849 14.537 34.4231 13.7869 36.0881C12.9345 37.9747 13.9233 39.3271 14.5768 39.509C16.6055 40.0716 18.691 39.0601 19.8104 37.3894C20.9299 35.7187 20.7935 33.548 20.2764 32.5535C20.2707 32.5422 20.265 32.5308 20.2537 32.5194C20.4582 32.4001 20.6685 32.2751 20.8731 32.1557C21.2765 31.9171 21.6743 31.6955 22.0153 31.5136C21.8221 32.0421 21.68 32.6729 21.6118 33.5821C21.5266 34.6504 21.9641 36.0369 22.5381 36.5825C22.7938 36.8211 23.095 36.8268 23.2882 36.8268C23.9587 36.8268 24.2599 36.2699 24.5951 35.6107C25.0043 34.8038 25.3737 33.8662 25.3737 33.8662C25.3737 33.8662 24.9134 36.4006 26.1635 36.4006C26.6181 36.4006 27.0784 35.8096 27.283 35.5085C27.283 35.5141 27.283 35.5141 27.283 35.5141C27.283 35.5141 27.2944 35.4971 27.3171 35.4573C27.3626 35.3834 27.391 35.338 27.391 35.338C27.391 35.338 27.391 35.3323 27.391 35.3266C27.5728 35.0084 27.982 34.2867 28.59 33.0877C29.3742 31.542 30.13 29.61 30.13 29.61C30.13 29.61 30.1982 30.0816 30.4311 30.8658C30.5675 31.3261 30.8517 31.8318 31.079 32.3205C30.8971 32.5763 30.7835 32.7183 30.7835 32.7183C30.7835 32.7183 30.7835 32.7183 30.7891 32.724C30.6414 32.9172 30.4823 33.1275 30.3061 33.332C29.6867 34.0708 28.948 34.9175 28.8457 35.1618C28.7264 35.4516 28.7548 35.6619 28.9821 35.8324C29.1469 35.9574 29.4424 35.9744 29.7436 35.9574C30.3004 35.9176 30.6925 35.7812 30.8857 35.696C31.1869 35.588 31.5392 35.4232 31.8688 35.1789C32.4769 34.7299 32.8462 34.0878 32.8121 33.2411C32.7951 32.7751 32.6417 32.3092 32.4541 31.8716C32.511 31.7921 32.5621 31.7125 32.6189 31.6329C33.5793 30.2294 34.3237 28.6894 34.3237 28.6894C34.3237 28.6894 34.3919 29.161 34.6249 29.9452C34.7385 30.343 34.9715 30.7749 35.1761 31.1954C34.2726 31.9284 33.7157 32.7808 33.5168 33.3377C33.1588 34.3719 33.4372 34.8379 33.9657 34.9459C34.2044 34.997 34.5453 34.8834 34.7954 34.7754C35.1136 34.6731 35.4886 34.497 35.8466 34.2356C36.4547 33.7866 37.04 33.1616 37.0059 32.3149C36.9888 31.9284 36.8865 31.5477 36.7445 31.1783C37.5116 30.8601 38.5004 30.684 39.7619 30.8317C42.4668 31.1499 43.001 32.8377 42.8987 33.548C42.7964 34.2583 42.2281 34.6447 42.0406 34.764C41.8531 34.8834 41.7906 34.9232 41.8076 35.0084C41.8304 35.1334 41.9213 35.1277 42.0804 35.105C42.302 35.0652 43.501 34.5311 43.5522 33.2241C43.6374 31.5534 42.0463 29.7293 39.2334 29.7463ZM18.3671 36.7814C17.4692 37.7588 16.219 38.1281 15.6792 37.8156C15.0996 37.4803 15.3269 36.0369 16.4293 35.0027C17.0998 34.3719 17.9636 33.7866 18.5375 33.4286C18.6682 33.3491 18.8614 33.2354 19.0944 33.0934C19.1342 33.0706 19.1569 33.0593 19.1569 33.0593C19.2024 33.0309 19.2479 33.0024 19.2933 32.974C19.6968 34.4515 19.3104 35.7528 18.3671 36.7814ZM24.902 32.3376C24.5895 33.0991 23.936 35.0482 23.5382 34.9402C23.1972 34.8493 22.987 33.3718 23.47 31.9114C23.7144 31.1783 24.2315 30.3032 24.5326 29.9623C25.0213 29.4167 25.5612 29.2349 25.6919 29.4565C25.8567 29.7463 25.0952 31.8603 24.902 32.3376ZM30.2948 34.9175C30.1641 34.9857 30.039 35.0311 29.9822 34.997C29.9424 34.9743 30.039 34.8834 30.039 34.8834C30.039 34.8834 30.7153 34.156 30.9824 33.8264C31.1358 33.6332 31.3176 33.4059 31.5108 33.1502C31.5108 33.1729 31.5108 33.2013 31.5108 33.2241C31.5108 34.0935 30.6698 34.6788 30.2948 34.9175ZM34.4544 33.9685C34.3578 33.9003 34.3748 33.673 34.6987 32.9627C34.8238 32.6842 35.1193 32.2183 35.625 31.7693C35.6818 31.9512 35.7216 32.1273 35.7159 32.2921C35.7102 33.3889 34.9261 33.798 34.4544 33.9685Z" fill="#CD6799"/>
</svg>
