<svg width="56" height="56" viewBox="0 0 56 56" fill="none" xmlns="http://www.w3.org/2000/svg">
<path d="M27.9026 12.5293L28.7328 14.0886C28.9195 14.3764 29.1217 14.6311 29.3599 14.8683C30.0581 15.5579 30.709 16.2938 31.3081 17.0712C32.7148 18.9183 33.6636 20.9695 34.3412 23.1879C34.7475 24.5431 34.9682 25.9333 34.9847 27.339C35.0528 31.5416 33.6121 35.1502 30.7073 38.1493C30.2348 38.6249 29.7243 39.0612 29.181 39.454C28.8932 39.454 28.7571 39.2333 28.6385 39.0301C28.4225 38.6533 28.2788 38.2396 28.2147 37.81C28.1126 37.3016 28.0455 36.7932 28.0786 36.2682V36.031C28.0552 35.9805 27.8015 12.6489 27.9026 12.5293Z" fill="#599636"/>
<path d="M27.9027 12.4778C27.8686 12.4097 27.8346 12.4613 27.8006 12.4943C27.8171 12.8346 27.6985 13.1379 27.5128 13.4276C27.3087 13.7153 27.0384 13.936 26.7672 14.1732C25.2603 15.4778 24.0743 17.0537 23.1245 18.8162C21.8607 21.1882 21.2094 23.7304 21.0247 26.4068C20.9401 27.3721 21.3299 30.7785 21.6342 31.7614C22.4644 34.3706 23.9557 36.557 25.8874 38.4546C26.3618 38.9115 26.8693 39.3354 27.3942 39.7427C27.5468 39.7427 27.5634 39.6066 27.5984 39.5055C27.6653 39.2892 27.7163 39.0682 27.751 38.8444L28.0913 36.3032L27.9027 12.4778Z" fill="#6CAC48"/>
<path d="M28.7329 40.4862C28.767 40.0973 28.9536 39.7745 29.1568 39.4528C28.9526 39.3682 28.801 39.2 28.6824 39.0124C28.5801 38.8347 28.4955 38.6475 28.4296 38.4534C28.1924 37.7418 28.1419 36.9952 28.0738 36.268V35.8276C27.9892 35.8957 27.9717 36.4712 27.9717 36.5567C27.9223 37.3253 27.8203 38.0896 27.6665 38.8442C27.6159 39.1495 27.5819 39.4537 27.3943 39.725C27.3943 39.759 27.3943 39.793 27.4108 39.8436C27.7161 40.7418 27.7997 41.6566 27.8512 42.5889V42.9292C27.8512 43.3355 27.8347 43.25 28.172 43.3861C28.3081 43.4366 28.4598 43.4541 28.5959 43.5552C28.6979 43.5552 28.7145 43.4706 28.7145 43.4026L28.6639 42.8436V41.2843C28.6474 41.0121 28.6979 40.7418 28.732 40.4871L28.7329 40.4862Z" fill="#C2BFBF"/>
</svg>
