<svg width="56" height="56" viewBox="0 0 56 56" fill="none" xmlns="http://www.w3.org/2000/svg">
<path d="M21.5309 30.3055C19.9854 30.3055 18.7257 29.0358 18.7257 27.4792C18.7257 25.9226 19.9854 24.6528 21.5309 24.6528C23.0764 24.6528 24.3361 25.9226 24.3361 27.4792C24.3361 29.0347 23.0753 30.3055 21.5309 30.3055ZM14.7952 35.9171C13.252 35.9138 11.9956 34.6385 12 33.0819C12.0009 32.3353 12.2977 31.6195 12.8254 31.0914C13.3531 30.5633 14.0687 30.2659 14.8152 30.2644C16.3596 30.2677 17.616 31.543 17.6105 33.1008C17.609 33.8471 17.312 34.5624 16.7844 35.0902C16.2567 35.618 15.5415 35.9154 14.7952 35.9171ZM40.3258 35.9171C39.5793 35.9186 38.8627 35.6242 38.3327 35.0985C37.8028 34.5727 37.5028 33.8584 37.4984 33.1119C37.4906 31.5531 38.7414 30.2733 40.2836 30.2655C41.0297 30.2643 41.7459 30.5587 42.2756 31.0842C42.8053 31.6097 43.1053 32.3235 43.11 33.0696C43.1188 34.6274 41.8669 35.9082 40.3258 35.9171Z" fill="black"/>
<path d="M35.068 24.8172C34.3052 24.5793 33.4902 24.4803 32.6908 24.3936C31.4544 24.2602 30.9618 23.7776 30.7528 22.539C30.635 21.8474 30.4704 21.138 30.1713 20.5098C29.6009 19.3146 28.2645 18.7787 26.9224 19.0844C25.7883 19.3435 24.8466 20.472 24.7943 21.6306C24.7343 22.9515 25.4904 24.08 26.789 24.4692C27.4061 24.6549 28.0621 24.7472 28.7059 24.795C29.8878 24.8806 30.2825 25.233 30.6016 25.7712C30.804 26.1114 30.9985 26.4461 30.9985 27.4579C30.9985 28.4708 30.8017 28.8055 30.6016 29.1446C30.2825 29.6827 29.8878 30.0341 28.7059 30.1219C28.061 30.1686 27.405 30.262 26.789 30.4477C25.4904 30.8379 24.7343 31.9643 24.7943 33.2874C24.8466 34.4448 25.7895 35.5734 26.9224 35.8324C28.2645 36.1393 29.6009 35.6023 30.1713 34.407C30.4715 33.7799 30.635 33.0695 30.7528 32.3779C30.963 31.1393 31.4555 30.6578 32.6908 30.5233C33.4913 30.4366 34.3052 30.3365 35.068 30.0986C36.2254 29.7372 36.9214 28.6576 36.9214 27.4579C36.9214 26.2593 36.2254 25.1808 35.068 24.8172Z" fill="#F44250"/>
</svg>
