<svg width="56" height="56" viewBox="0 0 56 56" fill="none" xmlns="http://www.w3.org/2000/svg">
<path d="M43.5554 12.4443H12.4443V43.5555H43.5554V12.4443Z" fill="#F7DF1E"/>
<path d="M33.3431 36.7502C33.9698 37.7734 34.7851 38.5255 36.2271 38.5255C37.4385 38.5255 38.2123 37.92 38.2123 37.0835C38.2123 36.081 37.4172 35.726 36.0839 35.1427L35.353 34.8292C33.2434 33.9304 31.8419 32.8045 31.8419 30.4242C31.8419 28.2316 33.5125 26.5625 36.1234 26.5625C37.9822 26.5625 39.3185 27.2094 40.2814 28.9032L38.0049 30.365C37.5036 29.4662 36.9629 29.1121 36.1234 29.1121C35.2671 29.1121 34.7244 29.6553 34.7244 30.365C34.7244 31.242 35.2676 31.5971 36.5219 32.1403L37.2528 32.4534C39.7367 33.5185 41.1392 34.6045 41.1392 37.046C41.1392 39.6781 39.0715 41.12 36.2948 41.12C33.5797 41.12 31.8256 39.8262 30.9673 38.1304L33.3431 36.7502ZM23.0157 37.0035C23.475 37.8183 23.8928 38.5072 24.8972 38.5072C25.8577 38.5072 26.4636 38.1314 26.4636 36.6702V26.7294H29.3871V36.7097C29.3871 39.7368 27.6123 41.1146 25.0217 41.1146C22.6809 41.1146 21.3254 39.9032 20.636 38.4442L23.0157 37.0035Z" fill="black"/>
</svg>
