<svg width="56" height="56" viewBox="0 0 56 56" fill="none" xmlns="http://www.w3.org/2000/svg">
<path d="M22.8148 43.5559C25.677 43.5559 28 41.2329 28 38.3707V33.1855H22.8148C19.9526 33.1855 17.6296 35.5085 17.6296 38.3707C17.6296 41.2329 19.9526 43.5559 22.8148 43.5559Z" fill="#0ACF83"/>
<path d="M17.6296 27.9996C17.6296 25.1374 19.9526 22.8145 22.8148 22.8145H28V33.1848H22.8148C19.9526 33.1848 17.6296 30.8618 17.6296 27.9996Z" fill="#A259FF"/>
<path d="M17.6296 17.6295C17.6296 14.7673 19.9526 12.4443 22.8148 12.4443H28V22.8147H22.8148C19.9526 22.8147 17.6296 20.4917 17.6296 17.6295Z" fill="#F24E1E"/>
<path d="M28 12.4443H33.1852C36.0474 12.4443 38.3704 14.7673 38.3704 17.6295C38.3704 20.4917 36.0474 22.8147 33.1852 22.8147H28V12.4443Z" fill="#FF7262"/>
<path d="M38.3704 27.9996C38.3704 30.8618 36.0474 33.1848 33.1852 33.1848C30.323 33.1848 28 30.8618 28 27.9996C28 25.1374 30.323 22.8145 33.1852 22.8145C36.0474 22.8145 38.3704 25.1374 38.3704 27.9996Z" fill="#1ABCFE"/>
</svg>
