<svg width="56" height="56" viewBox="0 0 56 56" fill="none" xmlns="http://www.w3.org/2000/svg">
<path fill-rule="evenodd" clip-rule="evenodd" d="M27.9999 35.883C36.591 35.883 43.5554 32.3534 43.5554 27.9998C43.5554 23.6462 36.591 20.1167 27.9999 20.1167C19.409 20.1167 12.4443 23.6462 12.4443 27.9998C12.4443 32.3534 19.409 35.883 27.9999 35.883Z" fill="#6E81B6"/>
<path fill-rule="evenodd" clip-rule="evenodd" d="M31.1524 30.5478L31.924 26.5766C32.0982 25.6803 31.9534 25.0118 31.4938 24.5893C31.0486 24.1806 30.2928 23.9818 29.1834 23.9818H27.8471L28.2294 22.0142C28.2365 21.9776 28.2355 21.9399 28.2263 21.9037C28.2172 21.8675 28.2001 21.8338 28.1764 21.805C28.1527 21.7762 28.1229 21.753 28.0892 21.7371C28.0554 21.7212 28.0186 21.7129 27.9813 21.7129H26.1369C26.0158 21.7129 25.9118 21.7989 25.8886 21.9177L25.0691 26.1336C24.9946 25.6592 24.811 25.2514 24.5172 24.9149C23.9762 24.2957 23.1205 23.9818 21.9737 23.9818H18.399C18.2779 23.9818 18.1739 24.0677 18.1507 24.1864L16.4922 32.7202C16.4778 32.7945 16.4971 32.8709 16.5453 32.9292C16.5933 32.9877 16.6647 33.0213 16.7405 33.0213H18.5994C18.7205 33.0213 18.8245 32.9354 18.8476 32.8163L19.2489 30.7523H20.6325C21.3586 30.7523 21.9688 30.6736 22.4451 30.5186C22.9321 30.3603 23.3803 30.0917 23.7753 29.7219C24.0945 29.4286 24.3582 29.1002 24.5612 28.746L24.23 30.4509C24.2155 30.5252 24.2349 30.602 24.283 30.6599C24.331 30.7184 24.4026 30.7521 24.4783 30.7521H26.3226C26.4437 30.7521 26.5477 30.6661 26.5709 30.5474L27.4811 25.8631H28.7466C29.2859 25.8631 29.4439 25.9706 29.487 26.0166C29.5259 26.0588 29.6068 26.2072 29.516 26.675L28.7824 30.4507C28.7753 30.4874 28.7765 30.5251 28.7857 30.5612C28.7949 30.5973 28.812 30.6309 28.8357 30.6597C28.8594 30.6885 28.8892 30.7116 28.9229 30.7276C28.9566 30.7435 28.9934 30.7518 29.0307 30.7519H30.9043C30.963 30.752 31.0198 30.7317 31.0651 30.6945C31.1104 30.6572 31.1413 30.6054 31.1524 30.5478ZM22.6018 27.2666C22.4859 27.8619 22.2677 28.2865 21.9528 28.5285C21.633 28.7751 21.1216 28.9 20.4326 28.9H19.6087L20.2044 25.8344H21.2696C22.0521 25.8344 22.3674 26.0016 22.494 26.1417C22.6695 26.3362 22.7067 26.7254 22.6018 27.2666ZM38.9212 24.9149C38.3804 24.2957 37.5247 23.9818 36.3779 23.9818H32.8032C32.6819 23.9818 32.5781 24.0677 32.5549 24.1864L30.8966 32.7202C30.882 32.7945 30.9013 32.8709 30.9495 32.9292C30.9976 32.9875 31.0693 33.0213 31.1445 33.0213H33.0035C33.1249 33.0213 33.2287 32.9354 33.2518 32.8163L33.6531 30.7523H35.0369C35.7632 30.7523 36.3728 30.6736 36.8493 30.5186C37.3364 30.3603 37.7847 30.0917 38.1795 29.7219C38.5091 29.4192 38.7801 29.0789 38.9855 28.7116C39.1909 28.3442 39.3382 27.9345 39.4242 27.4936C39.6354 26.4062 39.4663 25.5387 38.9212 24.9149ZM37.1115 27.2666C36.9954 27.8619 36.7772 28.2865 36.4627 28.5285C36.1428 28.7751 35.6313 28.9 34.9425 28.9H34.1184L34.7139 25.8344H35.7794C36.5618 25.8344 36.8771 26.0016 37.0039 26.1417C37.179 26.3362 37.2164 26.7254 37.1115 27.2666Z" fill="white"/>
<path fill-rule="evenodd" clip-rule="evenodd" d="M21.2168 25.5813C21.9229 25.5813 22.3937 25.7117 22.6291 25.9724C22.8642 26.2331 22.9202 26.6807 22.7972 27.3148C22.6686 27.9753 22.421 28.4466 22.0542 28.7292C21.6874 29.0117 21.1291 29.1528 20.3797 29.1528H19.2489L19.943 25.5813H21.2168ZM16.6875 32.7682H18.5463L18.9874 30.4996H20.5797C21.2822 30.4996 21.8603 30.4256 22.314 30.278C22.7677 30.1303 23.1802 29.883 23.5513 29.5356C23.8628 29.2495 24.1149 28.9334 24.3079 28.5881C24.5007 28.2427 24.6376 27.8618 24.7187 27.4452C24.9154 26.4336 24.767 25.6456 24.2738 25.0813C23.7808 24.5168 22.9962 24.2347 21.9209 24.2347H18.3462L16.6875 32.7682ZM26.0839 21.9658H27.9282L27.4873 24.2347H29.1306C30.164 24.2347 30.8775 24.4149 31.2699 24.7755C31.6622 25.1361 31.7798 25.7205 31.6229 26.5284L30.8513 30.4996H28.9777L29.7113 26.7236C29.7946 26.294 29.7641 26.0011 29.6191 25.8448C29.4741 25.6887 29.1654 25.6105 28.6936 25.6105H27.2197L26.2696 30.4996H24.4252L26.0839 21.9658ZM35.7265 25.5813C36.4327 25.5813 36.9033 25.7117 37.1388 25.9724C37.3739 26.2331 37.4298 26.6807 37.3068 27.3148C37.1785 27.9753 36.931 28.4466 36.564 28.7292C36.1974 29.0117 35.6389 29.1528 34.8899 29.1528H33.759L34.4529 25.5813H35.7265ZM31.1969 32.7682H33.0559L33.4968 30.4996H35.0891C35.7918 30.4996 36.3699 30.4256 36.8236 30.278C37.2773 30.1303 37.6898 29.883 38.0609 29.5356C38.3724 29.2495 38.6244 28.9334 38.8172 28.5881C39.01 28.2427 39.1472 27.8618 39.2284 27.4452C39.425 26.4336 39.2766 25.6456 38.7836 25.0813C38.2902 24.5168 37.5058 24.2347 36.4304 24.2347H32.8557L31.1969 32.7682Z" fill="black"/>
</svg>
