<svg width="56" height="56" viewBox="0 0 56 56" fill="none" xmlns="http://www.w3.org/2000/svg">
<path d="M27.9999 30.7425C29.5147 30.7425 30.7427 29.5145 30.7427 27.9997C30.7427 26.4848 29.5147 25.2568 27.9999 25.2568C26.4851 25.2568 25.2571 26.4848 25.2571 27.9997C25.2571 29.5145 26.4851 30.7425 27.9999 30.7425Z" fill="#61DAFB"/>
<path fill-rule="evenodd" clip-rule="evenodd" d="M15.1032 26.5566C14.4812 27.1181 14.2767 27.6077 14.2767 27.9998C14.2767 28.392 14.4812 28.8815 15.1032 29.443C15.7248 30.0041 16.6803 30.5552 17.946 31.0385C20.4703 32.0023 24.0246 32.6193 27.9999 32.6193C31.9752 32.6193 35.5295 32.0023 38.0538 31.0385C39.3195 30.5552 40.275 30.0041 40.8966 29.443C41.5186 28.8815 41.7231 28.392 41.7231 27.9998C41.7231 27.6077 41.5186 27.1181 40.8966 26.5566C40.275 25.9955 39.3195 25.4444 38.0538 24.9611C35.5295 23.9973 31.9752 23.3804 27.9999 23.3804C24.0246 23.3804 20.4703 23.9973 17.946 24.9611C16.6803 25.4444 15.7248 25.9955 15.1032 26.5566ZM17.24 23.0914C20.0424 22.0214 23.8469 21.3804 27.9999 21.3804C32.1529 21.3804 35.9574 22.0214 38.7598 23.0914C40.1575 23.6251 41.3573 24.2848 42.2252 25.0683C43.0927 25.8514 43.712 26.8402 43.712 27.9998C43.712 29.1594 43.0927 30.1482 42.2252 30.9313C41.3573 31.7148 40.1575 32.3746 38.7598 32.9083C35.9574 33.9783 32.1529 34.6193 27.9999 34.6193C23.8469 34.6193 20.0424 33.9783 17.24 32.9083C15.8423 32.3746 14.6425 31.7148 13.7746 30.9313C12.9071 30.1482 12.2878 29.1594 12.2878 27.9998C12.2878 26.8402 12.9071 25.8514 13.7746 25.0683C14.6425 24.2848 15.8423 23.6251 17.24 23.0914Z" fill="#61DAFB"/>
<path fill-rule="evenodd" clip-rule="evenodd" d="M22.8095 16.1115C22.0132 15.8539 21.4843 15.9203 21.1405 16.1188C20.7966 16.3173 20.4746 16.7422 20.2996 17.5606C20.1245 18.379 20.125 19.4813 20.3392 20.8182C20.7664 23.4847 22.0087 26.87 23.9958 30.3116C25.9828 33.7533 28.2934 36.5218 30.3891 38.225C31.4397 39.079 32.3941 39.6306 33.1905 39.8882C33.9867 40.1458 34.5156 40.0793 34.8595 39.8808C35.2033 39.6823 35.5253 39.2575 35.7003 38.4391C35.8754 37.6207 35.8749 36.5183 35.6607 35.1815C35.2335 32.5149 33.9912 29.1297 32.0041 25.688C30.0171 22.2464 27.7065 19.4779 25.6108 17.7746C24.5602 16.9207 23.6058 16.3691 22.8095 16.1115ZM26.8646 16.2262C29.1936 18.1191 31.6518 21.0945 33.729 24.6922C35.8061 28.2899 37.1538 31.9065 37.6285 34.8699C37.8654 36.3481 37.8939 37.7178 37.6492 38.8616C37.4045 40.0055 36.8581 41.0331 35.8581 41.6105C34.858 42.1878 33.6949 42.1473 32.5819 41.7872C31.469 41.4272 30.2971 40.7176 29.1354 39.7735C26.8063 37.8806 24.3481 34.9051 22.271 31.3075C20.1938 27.7098 18.8462 24.0932 18.3714 21.1297C18.1346 19.6516 18.1061 18.2819 18.3507 17.138C18.5954 15.9942 19.1418 14.9666 20.1419 14.3892C21.1419 13.8118 22.3051 13.8524 23.418 14.2124C24.5309 14.5725 25.7029 15.282 26.8646 16.2262Z" fill="#61DAFB"/>
<path fill-rule="evenodd" clip-rule="evenodd" d="M35.7002 17.5605C35.5251 16.7421 35.2032 16.3173 34.8593 16.1188C34.5155 15.9203 33.9866 15.8538 33.1903 16.1114C32.394 16.369 31.4396 16.9207 30.3889 17.7746C28.2932 19.4778 25.9827 22.2463 23.9956 25.688C22.0086 29.1296 20.7663 32.5149 20.3391 35.1814C20.1249 36.5183 20.1244 37.6206 20.2994 38.4391C20.4745 39.2574 20.7965 39.6823 21.1403 39.8808C21.4841 40.0793 22.0131 40.1457 22.8093 39.8881C23.6056 39.6305 24.56 39.0789 25.6107 38.225C27.7064 36.5217 30.0169 33.7533 32.004 30.3116C33.991 26.8699 35.2333 23.4847 35.6605 20.8181C35.8747 19.4813 35.8752 18.3789 35.7002 17.5605ZM37.6284 21.1297C37.1536 24.0931 35.8059 27.7097 33.7288 31.3074C31.6517 34.9051 29.1934 37.8805 26.8644 39.7734C25.7027 40.7176 24.5308 41.4271 23.4179 41.7872C22.3049 42.1472 21.1417 42.1878 20.1417 41.6104C19.1417 41.0331 18.5952 40.0054 18.3506 38.8616C18.1059 37.7177 18.1344 36.348 18.3712 34.8699C18.846 31.9064 20.1937 28.2898 22.2708 24.6921C24.3479 21.0945 26.8062 18.119 29.1352 16.2261C30.2969 15.282 31.4689 14.5724 32.5818 14.2124C33.6947 13.8523 34.8579 13.8118 35.8579 14.3891C36.858 14.9665 37.4044 15.9941 37.6491 17.138C37.8937 18.2818 37.8652 19.6515 37.6284 21.1297Z" fill="#61DAFB"/>
</svg>
