<svg width="56" height="56" viewBox="0 0 56 56" fill="none" xmlns="http://www.w3.org/2000/svg">
<path d="M42.9687 26.6137L29.3853 13.031C28.6035 12.2488 27.3348 12.2488 26.552 13.031L23.7313 15.8517L27.3095 19.4298C28.141 19.1489 29.0945 19.3374 29.7573 20.0002C30.4233 20.6672 30.6104 21.6289 30.3227 22.4631L33.771 25.9115C34.6053 25.6241 35.5679 25.8101 36.2342 26.4775C37.1655 27.4084 37.1655 28.9172 36.2342 29.8487C35.3027 30.7803 33.794 30.7803 32.862 29.8487C32.1615 29.1474 31.9884 28.1187 32.3431 27.2557L29.1272 24.0399L29.1268 32.5027C29.3599 32.618 29.5729 32.7702 29.7573 32.9536C30.6886 33.8845 30.6886 35.3934 29.7573 36.3256C28.8258 37.2568 27.3163 37.2568 26.3861 36.3256C25.4549 35.3934 25.4549 33.8846 26.3861 32.9537C26.6093 32.7304 26.8745 32.5536 27.1665 32.4334V23.8917C26.8741 23.7724 26.6087 23.5955 26.3861 23.3715C25.6805 22.6669 25.5109 21.6316 25.8724 20.7652L22.3452 17.2376L13.0313 26.5509C12.2487 27.3339 12.2487 28.6028 13.0313 29.3852L26.615 42.9681C27.397 43.7505 28.6655 43.7505 29.4485 42.9681L42.9686 29.4482C43.751 28.6656 43.751 27.396 42.9686 26.6137" fill="#DE4C36"/>
</svg>
