<svg width="56" height="56" viewBox="0 0 56 56" fill="none" xmlns="http://www.w3.org/2000/svg">
<path d="M14.2666 33.6335C14.2965 33.7009 14.3302 33.7631 14.3665 33.8254C14.3833 33.8617 14.4066 33.8992 14.4274 33.9329C14.4611 34.0004 14.4974 34.0652 14.5324 34.13L14.7359 34.4722C14.7735 34.5357 14.8098 34.598 14.8526 34.6602C14.9239 34.782 15.0081 34.9013 15.082 35.0231C15.1157 35.0737 15.1468 35.1243 15.1844 35.1748C15.327 35.3965 15.4567 35.5806 15.5954 35.7594C15.6939 35.893 15.7924 36.0239 15.8987 36.1548C15.9337 36.2041 15.9726 36.2533 16.0089 36.3026L16.2954 36.65C16.3304 36.6902 16.3654 36.7369 16.403 36.7783C16.53 36.9313 16.6648 37.0791 16.7996 37.2295C16.7996 37.2321 16.8035 37.2346 16.8061 37.2385C16.9733 37.4485 17.1535 37.6352 17.3506 37.8011L17.3558 37.8063C17.4595 37.9126 17.5632 38.0176 17.6733 38.1213L17.8043 38.2471C17.9482 38.3819 18.0921 38.5154 18.2437 38.645C18.2463 38.645 18.2476 38.6476 18.2502 38.6489L18.3241 38.7137C18.4563 38.8291 18.5898 38.9432 18.726 39.0495L18.888 39.1856C18.9982 39.2737 19.1123 39.3567 19.225 39.4436L19.4013 39.5784C19.5219 39.6691 19.6502 39.7573 19.7734 39.8454C19.8187 39.8778 19.8641 39.9102 19.9108 39.94L19.9484 39.9699L20.3126 40.2084L20.4682 40.3121C20.6588 40.4339 20.848 40.548 21.0373 40.6621C21.0917 40.6893 21.1462 40.7191 21.1967 40.7502C21.3367 40.8306 21.4819 40.9123 21.6232 40.9862C21.701 41.0302 21.7814 41.0678 21.8617 41.108C21.959 41.1625 22.0601 41.2156 22.1638 41.2701C22.1923 41.2791 22.2156 41.2882 22.239 41.3012L22.2441 41.296C22.2869 41.3154 22.3271 41.3362 22.3686 41.3569C22.5241 41.4347 22.6862 41.5086 22.8547 41.5812C22.8858 41.5941 22.9195 41.6071 22.9532 41.6252C23.1399 41.7069 23.3266 41.7847 23.5197 41.8599C23.5638 41.8728 23.6105 41.8949 23.6558 41.9117C23.8308 41.9778 24.011 42.0452 24.1899 42.1088L24.2547 42.1321C24.4531 42.1995 24.6488 42.2643 24.851 42.3252C24.8977 42.3382 24.9457 42.3551 24.9949 42.368C25.201 42.4302 25.4007 42.5041 25.6094 42.543C38.9264 44.958 42.7958 34.5759 42.7958 34.5759C39.5447 38.7889 33.7748 39.8999 28.3109 38.6632C28.1086 38.6165 27.9064 38.5517 27.7016 38.4921C27.4125 38.4102 27.1259 38.3199 26.8422 38.2211L26.9653 38.2587L26.8849 38.2276C26.7086 38.168 26.5388 38.1019 26.3664 38.0358C26.3242 38.0179 26.2814 38.0014 26.2381 37.9865L26.2238 37.9826C26.0333 37.9061 25.8479 37.8284 25.6638 37.7467C25.6236 37.7337 25.5899 37.7156 25.5497 37.7C25.3317 37.605 25.1156 37.5056 24.9016 37.4019L25.0805 37.4809C25.0338 37.4603 24.9879 37.4378 24.9431 37.4135C24.8212 37.3565 24.6994 37.2917 24.5801 37.2308C24.4893 37.1877 24.3998 37.1419 24.3118 37.0933L24.3377 37.1063C24.1912 37.0285 24.0447 36.9443 23.8969 36.8652C23.8529 36.8341 23.8023 36.8082 23.7517 36.7796C23.5321 36.652 23.3151 36.5197 23.101 36.383L23.1827 36.4322C23.1278 36.3983 23.0742 36.3624 23.0219 36.3246L23.0297 36.3298C22.8904 36.2442 22.7538 36.1543 22.6201 36.0602C22.576 36.0317 22.5358 36.0006 22.4904 35.9694C22.3508 35.8741 22.2133 35.7756 22.0782 35.6739L22.1093 35.6959C22.0549 35.6519 21.9965 35.6104 21.9382 35.5676C21.8241 35.4781 21.7088 35.3926 21.5947 35.2993L21.4417 35.1774C21.2787 35.0477 21.1188 34.9141 20.9621 34.7768L20.9608 34.7755L20.511 34.3672L20.3813 34.2454C20.275 34.1378 20.1662 34.0354 20.0573 33.9291L19.9315 33.7994C19.7973 33.6665 19.6663 33.5304 19.5387 33.3911L19.531 33.382L19.5089 33.3639C19.3717 33.2131 19.2364 33.0606 19.1032 32.9063C19.0682 32.8661 19.0358 32.8233 18.9995 32.7805L18.7052 32.424C18.5726 32.2574 18.4429 32.0885 18.3163 31.9172L18.2645 31.8446C15.2337 27.7275 14.137 22.0458 16.5624 17.3843L14.4209 20.0923C11.6662 24.0317 12.0072 29.1548 14.1137 33.3379C14.1616 33.4404 14.2148 33.5363 14.2666 33.6335Z" fill="#1266A9"/>
<path d="M23.5443 27.9587L23.53 27.9379L23.5183 27.9224L23.5443 27.9587Z" fill="black"/>
<path d="M24.9935 29.6593L25.1102 29.776C25.258 29.9186 25.4096 30.0573 25.5639 30.196L25.5834 30.2128C25.7389 30.3502 25.9139 30.4941 26.0941 30.6341L26.1213 30.6549C26.1654 30.6847 26.203 30.7197 26.2458 30.7495C26.4272 30.8895 26.61 31.023 26.8006 31.1565L26.82 31.1682C26.9004 31.2265 26.986 31.2797 27.0767 31.3367C27.113 31.36 27.1545 31.3912 27.1934 31.4145C27.3308 31.5026 27.4656 31.5843 27.6043 31.6686C27.6263 31.6776 27.6458 31.6893 27.6665 31.6984C27.7832 31.7697 27.9102 31.8384 28.0321 31.9006C28.0749 31.9265 28.1163 31.946 28.1604 31.9706C28.2473 32.0134 28.3328 32.0588 28.4158 32.1028L28.4573 32.121C28.6323 32.2065 28.8112 32.2869 28.9862 32.366C29.0302 32.3828 29.0678 32.3971 29.1054 32.4152C29.2493 32.4775 29.3958 32.5371 29.5397 32.5915C29.6045 32.6136 29.6654 32.6395 29.7264 32.659C29.8586 32.7082 29.9973 32.7536 30.1282 32.799L30.3097 32.8573C30.499 32.9156 30.6908 32.9921 30.8917 33.0232C41.1754 34.7162 43.5554 26.8385 43.5554 26.8385C41.4126 29.9069 37.2657 31.3691 32.8466 30.2271C32.626 30.1714 32.4072 30.1088 32.1906 30.0391L32.2645 30.0598C32.2023 30.043 32.1479 30.0236 32.0882 30.0054C31.9534 29.9587 31.8147 29.9134 31.6838 29.8654L31.4971 29.7954C31.3519 29.7371 31.2041 29.6826 31.0628 29.6204C31.0188 29.601 30.9786 29.588 30.9449 29.5685C30.7634 29.4869 30.5806 29.4065 30.403 29.321L30.136 29.1822L29.9817 29.1045C29.8625 29.0422 29.7523 28.9774 29.6382 28.9113C29.6091 28.8977 29.581 28.8821 29.5539 28.8647L29.5578 28.8659C29.4204 28.7804 29.2778 28.6974 29.1456 28.6106C29.1015 28.5859 29.0613 28.5561 29.0199 28.5302L28.7502 28.3552C28.5636 28.2256 28.3808 28.0869 28.1954 27.9521C28.1539 27.9145 28.1137 27.8833 28.0736 27.8496C26.1304 26.3291 24.5982 24.2511 23.8709 21.8983C23.1048 19.4522 23.2733 16.7092 24.5969 14.4834L22.97 16.7753C20.9724 19.6284 21.0852 23.4422 22.6407 26.46C22.9246 27.0174 23.2124 27.488 23.53 27.9365C23.8256 28.3591 24.1522 28.8543 24.5463 29.1939C24.6863 29.3534 24.8367 29.505 24.9935 29.6593Z" fill="#1266A9"/>
<path d="M15.6019 35.7672L15.5967 35.7594L15.5876 35.7477L15.6019 35.7672ZM20.992 34.8027L21.0049 34.8118L21.0075 34.8157L20.992 34.8027Z" fill="black"/>
<path d="M30.1593 14.294C28.981 16.0142 28.8682 18.1505 29.6797 20.047C30.5417 22.0614 32.3034 23.6429 34.3568 24.3922C34.4411 24.4246 34.5227 24.4518 34.6096 24.483L34.7236 24.518C34.8429 24.5555 34.9635 24.5996 35.0866 24.6268C40.7657 25.717 42.3032 21.7257 42.7167 21.1385C41.3646 23.07 39.0974 23.5341 36.3155 22.8613C36.0736 22.8023 35.8355 22.7287 35.6025 22.6409L35.6453 22.6552C35.3554 22.5548 35.0715 22.438 34.7949 22.3052L34.8442 22.3272C34.3127 22.0679 33.8564 21.7879 33.4325 21.4664C30.9462 19.5868 29.4088 16.0077 31.0318 13.0923L30.1593 14.294Z" fill="#1266A9"/>
</svg>
