<svg width="56" height="56" viewBox="0 0 56 56" fill="none" xmlns="http://www.w3.org/2000/svg">
<path fill-rule="evenodd" clip-rule="evenodd" d="M18.9062 15.6084C17.1311 15.6084 15.8175 17.1621 15.8763 18.8471C15.9328 20.4659 15.8594 22.5625 15.3317 24.2723C14.802 25.9869 13.9068 27.0734 12.4443 27.2128V28.7874C13.9068 28.9271 14.802 30.0131 15.3316 31.7279C15.8594 33.4377 15.9327 35.5343 15.8763 37.1531C15.8175 38.8378 17.131 40.3918 18.9065 40.3918H37.0959C38.8711 40.3918 40.1844 38.8381 40.1256 37.1531C40.0691 35.5343 40.1425 33.4377 40.6703 31.7279C41.1999 30.0131 42.0929 28.9267 43.5554 28.7874V27.2128C42.093 27.0731 41.2 25.9871 40.6703 24.2723C40.1424 22.5628 40.0691 20.4659 40.1256 18.8471C40.1844 17.1624 38.8711 15.6084 37.0959 15.6084H18.906H18.9062ZM33.5366 30.8642C33.5366 33.1844 31.806 34.5915 28.934 34.5915H24.0451C23.9052 34.5915 23.7711 34.5359 23.6722 34.437C23.5733 34.3381 23.5178 34.204 23.5178 34.0642V21.9361C23.5178 21.7963 23.5733 21.6621 23.6722 21.5632C23.7711 21.4644 23.9052 21.4088 24.0451 21.4088H28.9062C31.301 21.4088 32.8726 22.706 32.8726 24.6976C32.8726 26.0955 31.8153 27.3469 30.4684 27.5661V27.639C32.302 27.8402 33.5366 29.1101 33.5366 30.8642ZM28.4009 23.0804H25.6133V27.0179H27.9612C29.7762 27.0179 30.777 26.287 30.777 24.9806C30.7768 23.7564 29.9164 23.0804 28.4009 23.0804ZM25.6133 28.5802V32.9194H28.5035C30.3933 32.9194 31.3942 32.1611 31.3942 30.7361C31.3942 29.311 30.3652 28.5799 28.382 28.5799H25.6133V28.5802Z" fill="#7952B3"/>
</svg>
