<svg width="56" height="56" viewBox="0 0 56 56" fill="none" xmlns="http://www.w3.org/2000/svg">
<path d="M41.7161 12.4443L39.217 40.4411L27.9832 43.5554L16.7804 40.4455L14.2839 12.4443H41.7161Z" fill="#264DE4"/>
<path d="M37.0774 38.6584L39.2131 14.7339H28V41.175L37.0774 38.6584Z" fill="#2965F1"/>
<path d="M20.0071 25.1191L20.3149 28.5533H28V25.1191H20.0071Z" fill="#EBEBEB"/>
<path d="M28.0001 18.168H27.9882H19.3887L19.7009 21.6022H28.0001V18.168Z" fill="#EBEBEB"/>
<path d="M28 37.6112V34.0382L27.9849 34.0422L24.1602 33.0095L23.9157 30.2705H22.0572H20.4683L20.9494 35.6627L27.9841 37.6156L28 37.6112Z" fill="#EBEBEB"/>
<path d="M32.2171 28.5531L31.8185 33.007L27.9883 34.0408V37.6137L35.0286 35.6625L35.0803 35.0823L35.8873 26.0411L35.9711 25.1189L36.5911 18.168H27.9883V21.6022H32.8275L32.515 25.1189H27.9883V28.5531H32.2171Z" fill="white"/>
</svg>
